<?xml version="1.0" encoding="UTF-8"?>
<!DOCTYPE svg PUBLIC "-//W3C//DTD SVG 1.1//EN" "http://www.w3.org/Graphics/SVG/1.1/DTD/svg11.dtd">
<!-- Creator: CorelDRAW 2019 (64-Bit) -->
<svg xmlns="http://www.w3.org/2000/svg" xml:space="preserve" width="11.6929in" height="8.26772in" version="1.1" style="shape-rendering:geometricPrecision; text-rendering:geometricPrecision; image-rendering:optimizeQuality; fill-rule:evenodd; clip-rule:evenodd"
viewBox="0 0 11692.91 8267.72"
 xmlns:xlink="http://www.w3.org/1999/xlink">
 <defs>
  <style type="text/css">
   <![CDATA[
    .fil0 {fill:black}
   ]]>
  </style>
 </defs>
 <g id="Layer_x0020_1">
  <metadata id="CorelCorpID_0Corel-Layer"/>
  <path class="fil0" d="M5843.65 6324.76c59.23,-37.46 361.63,-336.27 439.41,-418.39 121.41,-128.2 357.13,-338.1 503.9,-476.54 13.16,-12.41 20.76,-19.06 33.7,-31.67l27.64 -29.46c107.72,-121.72 392.37,-375.37 510.11,-486.55 45.31,-42.78 76.86,-80.6 121.85,-123.03l1702.07 -1630.81c122.04,-128.86 313.17,-296.39 445.08,-420.98 41.72,-39.41 87.91,-78.28 125.99,-119.12 36.46,-39.11 94.31,-87.01 124.02,-128.92 -55.33,-78.03 -327.1,-300.31 -417.12,-399.76l-15.26 -17.34c-30.93,-34.94 -66.15,-73.97 -105.46,-98.83 -55.76,35.27 -370.39,343 -439.26,410.59 -21.97,21.56 -27.37,34.2 -50.09,55.88 -19.98,19.07 -34.59,32.36 -54.79,51.44l-386.74 364.96c-22.71,21.69 -28.12,34.32 -50.09,55.88 -161.41,158.39 -342.95,303.16 -492.17,471.75l-709.74 679c-74.88,70.73 -143.5,135.76 -218.5,206.37l-218.5 214.31c-104.84,99.02 -244.99,217.31 -339.04,322.7l-537.05 516.67c-40.38,-25.54 -72.17,-72.19 -107.15,-105.17l-978.96 -940.64c-165.31,-154.37 -338.43,-307.69 -491.76,-472.14 -99.1,-106.3 -325.49,-307.87 -441.25,-416.65 -23.56,-22.14 -29.12,-34.26 -50.19,-55.78 -157.2,-160.52 -334.61,-303.59 -491.83,-464.13 -133.78,-136.61 -414.32,-385.15 -495.33,-476.69 -75.65,-85.47 -389.16,-386.51 -439.47,-418.33 -27.78,17.57 -112.85,98.76 -135.71,125.81 -91.33,108.13 -343.38,307.25 -402.13,390.11 17.17,24.22 38.59,39.28 61.1,61.35l184.71 182.72c146.77,138.63 300.34,272.67 441.3,416.61 153.2,156.44 549.43,512.89 629.8,603.69 24.27,27.42 32.06,37.67 59.2,63.15l508.43 480.2c46.25,43.61 79.37,82.91 126.06,127 122.29,115.49 466.69,427.19 557.16,529.42 103.89,117.39 449.26,430.35 581.62,553.95l121.78 123.09c168.71,159.35 346.66,314.81 508.53,480.11 68.88,70.33 176.26,194.94 254.11,244.17z"/>
 </g>
</svg>
