<?xml version="1.0" encoding="UTF-8"?>
<!DOCTYPE svg PUBLIC "-//W3C//DTD SVG 1.0//EN" "http://www.w3.org/TR/2001/REC-SVG-20010904/DTD/svg10.dtd">
<!-- Creator: CorelDRAW 2019 (64-Bit) -->
<?xml-stylesheet href="acc2.css" type="text/css"?>
<svg xmlns="http://www.w3.org/2000/svg" xml:space="preserve" width="3.04846in" height="1.65556in" version="1.0" style="shape-rendering:geometricPrecision; text-rendering:geometricPrecision; image-rendering:optimizeQuality; fill-rule:evenodd; clip-rule:evenodd"
viewBox="0 0 3048.46 1655.56"
 xmlns:xlink="http://www.w3.org/1999/xlink">
 <g id="Layer_x0020_1">
  <metadata id="CorelCorpID_0Corel-Layer"/>
  <path class="fil0" d="M1521.43 1655.78c22.38,-14.16 136.65,-127.07 166.04,-158.1 45.88,-48.44 134.95,-127.76 190.41,-180.07 4.97,-4.69 7.84,-7.2 12.73,-11.97l10.44 -11.13c40.7,-45.99 148.26,-141.84 192.76,-183.85 17.12,-16.17 29.04,-30.46 46.04,-46.49l643.16 -616.23c46.11,-48.69 118.33,-112 168.18,-159.07 15.77,-14.89 33.22,-29.58 47.61,-45.01 13.78,-14.78 35.63,-32.88 46.86,-48.71 -20.91,-29.49 -123.6,-113.48 -157.61,-151.06l-5.77 -6.56c-11.69,-13.2 -25,-27.95 -39.85,-37.34 -21.07,13.33 -139.95,129.61 -165.98,155.15 -8.3,8.15 -10.35,12.92 -18.93,21.11 -7.55,7.21 -13.07,12.23 -20.7,19.44l-146.13 137.91c-8.58,8.19 -10.63,12.97 -18.93,21.11 -60.99,59.85 -129.59,114.56 -185.97,178.26l-268.19 256.57c-28.3,26.72 -54.22,51.3 -82.56,77.98l-82.56 80.98c-39.61,37.41 -92.57,82.11 -128.11,121.94l-202.93 195.23c-15.26,-9.65 -27.27,-27.28 -40.49,-39.74l-369.91 -355.44c-62.47,-58.33 -127.88,-116.27 -185.82,-178.41 -37.45,-40.17 -122.99,-116.33 -166.74,-157.44 -8.91,-8.37 -11,-12.94 -18.96,-21.07 -59.41,-60.66 -126.44,-114.72 -185.85,-175.38 -50.55,-51.62 -156.56,-145.54 -187.17,-180.13 -28.58,-32.3 -147.05,-146.05 -166.06,-158.07 -10.5,6.64 -42.65,37.32 -51.28,47.54 -34.51,40.86 -129.75,116.1 -151.95,147.41 6.49,9.15 14.58,14.84 23.09,23.18l69.8 69.04c55.46,52.38 113.49,103.04 166.75,157.43 57.89,59.11 207.61,193.8 237.98,228.11 9.17,10.36 12.11,14.23 22.37,23.86l192.12 181.45c17.48,16.48 29.99,31.33 47.63,47.99 46.21,43.64 176.35,161.43 210.54,200.05 39.26,44.36 169.76,162.61 219.77,209.32l46.02 46.52c63.75,60.21 130.99,118.96 192.16,181.42 26.03,26.57 66.61,73.66 96.02,92.26z"/>
 </g>
</svg>
